<svg xmlns="http://www.w3.org/2000/svg" xmlns:xlink="http://www.w3.org/1999/xlink" viewBox="0 0 300 300"><defs><style>.cls-1{fill:#164672;}.cls-2{fill:url(#Degradado_sin_nombre_14);}.cls-3{fill:url(#Degradado_sin_nombre_20);}</style><linearGradient id="Degradado_sin_nombre_14" x1="176.85" y1="77.3" x2="135.59" y2="125.14" gradientUnits="userSpaceOnUse"><stop offset="0" stop-color="#fff"/><stop offset="1" stop-color="#485061"/></linearGradient><linearGradient id="Degradado_sin_nombre_20" x1="104.31" y1="149.74" x2="190.4" y2="149.74" gradientUnits="userSpaceOnUse"><stop offset="0" stop-color="#bac8d6"/><stop offset="0.49" stop-color="#fff"/><stop offset="1" stop-color="#485061"/></linearGradient></defs><title>LOGO SILVER EXPRESS</title><g id="Capa_2" data-name="Capa 2"><circle class="cls-1" cx="150.05" cy="150.11" r="100.13"/><path class="cls-2" d="M191.42,90.76s-3.52-4-15.59-7.2c-18.76-5-26.43-.65-35.48,5.83-15.73,11.26-6.73,38.13-3.06,39,2.17.48-.63-7.28,3-12,4.63-6,17-3.8,28.33-5.22C178.23,109.94,191.42,90.76,191.42,90.76Z"/><path class="cls-3" d="M129.87,81.88c-.93-.93-35.81,18.39-22.56,53.9,13.43,36,44.15,29.29,61.34,49.54,10.25,12.07-3.74,30.76-.8,32.21,3.41,1.68,23-16.86,22.54-40.41C190.17,164,183.54,151,174,142.63c-11.22-9.75-17.76-7.74-35.18-18.78C110.36,105.82,130.62,82.63,129.87,81.88Z"/></g></svg>